<svg xmlns="http://www.w3.org/2000/svg" width="52.053" height="42.497" viewBox="0 0 52.053 42.497"><g transform="translate(0 0.004)"><g transform="translate(0 -0.004)"><path d="M12.387,0c.195.016.39.033.585.047a10.525,10.525,0,0,1,2.3.43,12.251,12.251,0,0,1,4,2.095A19.8,19.8,0,0,1,21.336,4.48c1.1,1.133,2.2,2.259,3.3,3.391.2.2.366.432.569.626a2.754,2.754,0,0,0,1.694.769,2.909,2.909,0,0,0,2.716-1.224,1.057,1.057,0,0,1,.1-.108q2.338-2.3,4.675-4.609c.174-.172.326-.369.511-.527a2.4,2.4,0,0,1,1.609-.589,2.53,2.53,0,0,1,2.355,1.405,2.536,2.536,0,0,1-.383,2.946c-.846.886-1.719,1.746-2.582,2.616Q31.4,13.72,26.888,18.263a2.218,2.218,0,0,0-.7,1.371,1.666,1.666,0,0,0,.564,1.441,1.9,1.9,0,0,0,2.357.142,3.119,3.119,0,0,0,.47-.373q1.463-1.414,2.917-2.837a7.526,7.526,0,0,1,.557-.55,2.485,2.485,0,0,1,1.657-.525,2.564,2.564,0,0,1,2.415,1.976,2.473,2.473,0,0,1-.661,2.405c-1.062,1.088-2.142,2.158-3.214,3.236L27.4,30.443a2.982,2.982,0,0,0-.879,1.46,1.75,1.75,0,0,0,.733,1.919,1.677,1.677,0,0,0,1.392.167,2.847,2.847,0,0,0,1.227-.761Q35,28.207,40.128,23.181q1.243-1.217,2.486-2.434a3.4,3.4,0,0,1,1.6-.93,2.32,2.32,0,0,1,2.641,1.192,2.635,2.635,0,0,1-.276,2.985,3.739,3.739,0,0,1-.348.4q-5.184,5.265-10.37,10.528-3.3,3.346-6.591,6.692a2.811,2.811,0,0,1-2.355.868,2.7,2.7,0,0,1-1.776-.866c-.02-.021-.04-.041-.061-.061L10.926,27.4c-2.385-2.385-4.777-4.763-7.152-7.158A13.207,13.207,0,0,1,.623,15.327a9.422,9.422,0,0,1-.532-2.278A14.2,14.2,0,0,1,0,11.384,10.374,10.374,0,0,1,.717,7.9,11.938,11.938,0,0,1,3.1,4.078,12.585,12.585,0,0,1,8.575.556,10.573,10.573,0,0,1,10.7.094c.317-.034.636-.051.953-.077.041,0,.082-.014.123-.022Z" transform="translate(0 0.004)" fill="#fff"/><path d="M1533.323,99.765a2.39,2.39,0,0,1,2.415,1.9,2.611,2.611,0,0,1-.6,2.193,14.491,14.491,0,0,1-1.072,1.132q-2.734,2.716-5.477,5.423c-.845.835-1.7,1.657-2.538,2.5a3.424,3.424,0,0,1-1.21.833,2.438,2.438,0,0,1-3.343-1.844,2.344,2.344,0,0,1,.889-2.3c.038-.031.075-.064.109-.1l8.538-8.586a3.713,3.713,0,0,1,1.656-1.031c.207-.056.422-.081.634-.12" transform="translate(-1484.026 -97.308)" fill="#fff"/><path d="M1898.773,575.6a2.7,2.7,0,1,1-2.7,2.614,2.691,2.691,0,0,1,2.7-2.614" transform="translate(-1849.425 -561.437)" fill="#fff"/></g></g></svg>