<svg xmlns="http://www.w3.org/2000/svg" width="21.887" height="21.882" viewBox="0 0 21.887 21.882"><path d="M0-14.99a5.6,5.6,0,0,0-5.61,5.61A5.6,5.6,0,0,0,0-3.77a5.6,5.6,0,0,0,5.61-5.61A5.6,5.6,0,0,0,0-14.99ZM0-5.732A3.654,3.654,0,0,1-3.643-9.38,3.651,3.651,0,0,1,0-13.027,3.651,3.651,0,0,1,3.652-9.38,3.654,3.654,0,0,1,0-5.732ZM7.153-15.22a1.309,1.309,0,0,0-1.309-1.309A1.309,1.309,0,0,0,4.536-15.22a1.306,1.306,0,0,0,1.309,1.309A1.306,1.306,0,0,0,7.153-15.22Zm3.716,1.328A6.476,6.476,0,0,0,9.1-18.477a6.519,6.519,0,0,0-4.585-1.768c-1.807-.1-7.222-.1-9.028,0A6.509,6.509,0,0,0-9.1-18.481,6.5,6.5,0,0,0-10.864-13.9c-.1,1.807-.1,7.222,0,9.028A6.476,6.476,0,0,0-9.1-.283,6.527,6.527,0,0,0-4.512,1.484c1.807.1,7.222.1,9.028,0A6.476,6.476,0,0,0,9.1-.283a6.519,6.519,0,0,0,1.768-4.585C10.972-6.675,10.972-12.085,10.869-13.892ZM8.535-2.93A3.693,3.693,0,0,1,6.455-.85C5.015-.278,1.6-.41,0-.41S-5.01-.283-6.445-.85a3.693,3.693,0,0,1-2.08-2.08c-.571-1.44-.439-4.858-.439-6.45s-.127-5.015.439-6.45a3.693,3.693,0,0,1,2.08-2.08C-5-18.481-1.587-18.35,0-18.35s5.015-.127,6.45.439a3.693,3.693,0,0,1,2.08,2.08c.571,1.44.439,4.858.439,6.45S9.106-4.365,8.535-2.93Z" transform="translate(10.941 20.321)" fill="#fff"/></svg>