<svg xmlns="http://www.w3.org/2000/svg" width="64.482" height="34.58" viewBox="0 0 64.482 34.58"><g transform="translate(-877.223 -493.134)"><path d="M955.267,527.733a24.447,24.447,0,0,1-12.225-3.8c-.882-.548-.629-.958-.222-1.548.938-1.36,1.934-2.686,2.78-4.1.538-.9.9-.993,1.793-.361a13.865,13.865,0,0,0,8.492,2.481,5.1,5.1,0,0,0,2.443-.652c2.049-1.145,2.206-3.2.282-4.54a16.916,16.916,0,0,0-4.176-1.854,48.423,48.423,0,0,1-6.094-2.51c-6.156-3.15-5.82-11.146-.868-14.833,5.99-4.459,14.065-3.046,19.281-.121.622.349.71.686.287,1.294-1.014,1.456-2.018,2.926-2.912,4.457-.517.885-.943.81-1.731.353a9.321,9.321,0,0,0-7.746-1.175c-1.128.354-2.033.936-2.184,2.2-.16,1.35.788,2.013,1.823,2.45,1.515.639,3.1,1.119,4.633,1.715,1.365.53,2.739,1.055,4.049,1.705,3.658,1.816,5.744,4.615,5.578,8.894s-2.656,6.813-6.263,8.5A17.056,17.056,0,0,1,955.267,527.733Z" transform="translate(-41.17 -0.02)" fill="#fff"/><path d="M885.977,511.564c0,5.034-.038,10.068.028,15.1.016,1.194-.282,1.594-1.511,1.52a38.032,38.032,0,0,0-5.52.009c-1.466.126-1.748-.459-1.737-1.746.045-5.648.019-11.3.019-16.943,0-4.359.044-8.718-.031-13.075-.019-1.1.178-1.525,1.366-1.466,2.02.1,4.051.093,6.073.014,1.031-.04,1.351.231,1.339,1.3C885.945,501.373,885.977,506.469,885.977,511.564Z" transform="translate(0 -1.151)" fill="#fff"/><path d="M913.446,504.891a5.715,5.715,0,0,1-5.851-5.787,5.8,5.8,0,0,1,5.882-5.97,5.9,5.9,0,0,1,5.907,6A5.837,5.837,0,0,1,913.446,504.891Z" transform="translate(-19.171)" fill="#fff"/><path d="M1026.031,554.978a5.683,5.683,0,0,1,5.875,5.755,5.889,5.889,0,1,1-5.875-5.755Z" transform="translate(-90.201 -39.036)" fill="#fff"/></g></svg>