<svg xmlns="http://www.w3.org/2000/svg" width="37.256" height="50" viewBox="0 0 37.256 50"><path d="M4.189-20.281a2.644,2.644,0,0,0-.977-.226A2.377,2.377,0,0,0,1.1-18.991a23.051,23.051,0,0,0-1,6.137c0,.608.056,1.591.126,2.195A2.278,2.278,0,0,0,2.436-8.678a2.674,2.674,0,0,0,.543-.067l10.5-2.618a2.231,2.231,0,0,0,.439-4.171Zm4.3,23.364a23.164,23.164,0,0,0,7.756,3.136,2.673,2.673,0,0,0,.376.032A2.241,2.241,0,0,0,18.842,4.1l.381-10.822a2.232,2.232,0,0,0-3.888-1.572L8.088-.246a2.576,2.576,0,0,0-.571,1.49,2.494,2.494,0,0,0,.97,1.839ZM22.68-7.651l5.743,9.18a2.491,2.491,0,0,0,1.9,1.048,2.6,2.6,0,0,0,1.424-.511,23.036,23.036,0,0,0,5.147-6.6,2.67,2.67,0,0,0,.21-.949,2.4,2.4,0,0,0-1.537-2.131L25.268-10.963A2.239,2.239,0,0,0,22.68-7.651ZM37.165-20.564a22.925,22.925,0,0,0-4.923-6.768,2.584,2.584,0,0,0-1.471-.553,2.5,2.5,0,0,0-1.849.983l-6.055,8.977a2.228,2.228,0,0,0,2.461,3.39l10.414-2.979a2.381,2.381,0,0,0,1.612-2.155,2.676,2.676,0,0,0-.185-.893ZM6.065-40.8A2.437,2.437,0,0,0,4.8-38.791a2.636,2.636,0,0,0,.3,1.113L15.267-20.057a2.231,2.231,0,0,0,4.161-1.113V-41.516c0-.006,0-.014,0-.02a2.215,2.215,0,0,0-2.214-2.214c-.049,0-.13,0-.179.007A37.376,37.376,0,0,0,6.065-40.8Z" transform="translate(-0.098 43.749)" fill="#fff"/></svg>