<svg xmlns="http://www.w3.org/2000/svg" xmlns:xlink="http://www.w3.org/1999/xlink" width="107.408" height="113.96" viewBox="0 0 107.408 113.96"><defs><clipPath id="a"><rect width="107.408" height="113.96" fill="#0962ae"/></clipPath></defs><g clip-path="url(#a)"><path d="M49.009,91.275c-.326-.455-.608-.846-.887-1.239-1.692-2.378-3.4-4.741-5.238-7.012-1.218-1.507-2.485-2.97-3.834-4.363a30.211,30.211,0,0,0-3.588-3.28A17.073,17.073,0,0,0,28.6,72.292a17.567,17.567,0,0,0-2.879-.332,14.313,14.313,0,0,0-5.619.892,12.924,12.924,0,0,0-4.353,2.7,13.723,13.723,0,0,0-4.132,7.778,15.622,15.622,0,0,0-.249,3.069,21.891,21.891,0,0,0,.583,4.379c.39,1.747.788,3.492,1.157,5.243A3.978,3.978,0,0,1,13.14,97.1a.785.785,0,0,1-.626.716.65.65,0,0,1-.749-.22,1.859,1.859,0,0,1-.311-.567,15.6,15.6,0,0,0-2.508-4.562c-1-1.321-2.056-2.6-3.086-3.9a28.12,28.12,0,0,1-4.168-7.037A22.374,22.374,0,0,1,.186,75.648c-.08-.732-.106-1.47-.155-2.206a17.594,17.594,0,0,1,.177-3.615A16.952,16.952,0,0,1,2.6,63.142,15.481,15.481,0,0,1,8.38,57.654,15.648,15.648,0,0,1,13.656,55.9a17.02,17.02,0,0,1,3.732-.128,19.439,19.439,0,0,1,4.85,1.029,36.185,36.185,0,0,1,10.351,5.562,42.664,42.664,0,0,1,4,3.42c.918.9,1.843,1.791,2.719,2.728,1.72,1.838,3.364,3.744,4.9,5.744q.7.908,1.4,1.811c.043.056.091.109.182.217,0-.4.015-.746,0-1.086-.035-.64-.08-1.279-.139-1.917a43.226,43.226,0,0,0-1.212-6.741c-.735-2.874-1.723-5.668-2.644-8.483a59.082,59.082,0,0,1-1.894-6.739c-.271-1.351-.508-2.711-.7-4.075-.185-1.328-.33-2.665-.422-4a40.474,40.474,0,0,1-.088-4.683c.048-1.039.06-2.082.161-3.116q.195-1.984.512-3.955a44.986,44.986,0,0,1,1.792-7.139A51.112,51.112,0,0,1,46.1,13.863c1.456-2.366,3.133-4.573,4.81-6.782,1.09-1.437,2.151-2.9,3.2-4.365.449-.63.822-1.313,1.241-1.965a4.034,4.034,0,0,1,.467-.6.471.471,0,0,1,.657-.038,2.06,2.06,0,0,1,.4.418q3.047,4.319,6.083,8.645c1.395,1.995,2.776,4,4.025,6.092a46.116,46.116,0,0,1,5.28,12.96,43.251,43.251,0,0,1,1.065,6.4c.1,1.18.169,2.364.223,3.548.039.846.057,1.7.039,2.543a24.947,24.947,0,0,1-.644,5.793,28.194,28.194,0,0,1-1.793,4.9,68.281,68.281,0,0,1-4.637,8.051c-1.708,2.632-3.557,5.166-5.377,7.72a83.708,83.708,0,0,0-5.158,8.25,100.044,100.044,0,0,0-6.128,13.509c-.227.612-.437,1.231-.656,1.846-.048.135-.1.268-.18.483" transform="translate(0 -0.001)" fill="#0962ae"/><path d="M367.691,367.746a15.806,15.806,0,0,1,7.531,1.713,14.581,14.581,0,0,1,3.308,2.345,16.207,16.207,0,0,1,4.413,7.272,18.916,18.916,0,0,1,.813,4.78c.018.459.046.919.042,1.378a23.032,23.032,0,0,1-.982,6.543,24.209,24.209,0,0,1-4.071,7.815c-1.036,1.341-2.117,2.646-3.168,3.975a22.182,22.182,0,0,0-2.381,3.6c-.3.591-.543,1.215-.809,1.825-.077.177-.137.363-.222.536a.615.615,0,0,1-.586.415.657.657,0,0,1-.647-.5,5.88,5.88,0,0,1-.161-1.07,9.242,9.242,0,0,1,.413-2.791,38.166,38.166,0,0,0,.936-4.4c.092-.67.144-1.346.2-2.02.033-.422.053-.846.044-1.269a15.377,15.377,0,0,0-1.193-5.828,13.048,13.048,0,0,0-3.079-4.448,12.88,12.88,0,0,0-6.381-3.268,16.615,16.615,0,0,0-4.3-.264,15.735,15.735,0,0,0-6.437,1.716,15.3,15.3,0,0,0-2.977,2.066c-1.32,1.155-2.649,2.3-3.932,3.5a59.247,59.247,0,0,0-7.886,8.953,48.568,48.568,0,0,0-5.862,10.83,36.657,36.657,0,0,0-1.6,5.05,12.436,12.436,0,0,0-.308,3.388,6.3,6.3,0,0,0,.2,1.287,1.348,1.348,0,0,0,1.244,1.1.911.911,0,0,0,1-.5,5.931,5.931,0,0,0,.369-1.02,8.137,8.137,0,0,1,.739-1.888,3,3,0,0,1,2.891-1.647,5.249,5.249,0,0,1,1.8.365,3.613,3.613,0,0,1,1.88,4.843,6.56,6.56,0,0,1-9.577,2.768,6.808,6.808,0,0,1-2.817-4.176,13.4,13.4,0,0,1-.364-3.928,17.312,17.312,0,0,1,.848-4.664q.976-2.906,2.06-5.776a88.373,88.373,0,0,1,3.783-8.526,76.506,76.506,0,0,1,7.551-12.093,56.625,56.625,0,0,1,3.838-4.548c1-1.054,2-2.112,3.052-3.115a48.366,48.366,0,0,1,6.451-5.288,30.115,30.115,0,0,1,10.339-4.553,17.977,17.977,0,0,1,4-.482" transform="translate(-276.39 -312.017)" fill="#0962ae"/></g></svg>