<svg xmlns="http://www.w3.org/2000/svg" xmlns:xlink="http://www.w3.org/1999/xlink" width="836.784" height="888" viewBox="0 0 836.784 888"><defs><clipPath id="a"><rect width="836.784" height="888" fill="none"/></clipPath></defs><g opacity="0.1"><g clip-path="url(#a)"><path d="M381.844,711.347l-6.909-9.655C361.74,683.155,348.4,664.73,334.11,647.042c-9.493-11.727-19.367-23.137-29.89-34a232.2,232.2,0,0,0-27.955-25.558,132.712,132.712,0,0,0-53.507-24.073,135.563,135.563,0,0,0-22.438-2.584,111.119,111.119,0,0,0-43.777,6.947,100.493,100.493,0,0,0-33.878,21.046,106.941,106.941,0,0,0-32.212,60.622,121.872,121.872,0,0,0-1.935,23.911,169.556,169.556,0,0,0,4.55,34.128c3.033,13.625,6.135,27.218,9.025,40.862a30.879,30.879,0,0,1,.287,8.445,6.073,6.073,0,0,1-4.874,5.574,5.054,5.054,0,0,1-5.829-1.71,14.579,14.579,0,0,1-2.434-4.406A121.208,121.208,0,0,0,69.695,720.7c-7.8-10.3-16.022-20.266-24.054-30.4a218.792,218.792,0,0,1-32.486-54.843A174.378,174.378,0,0,1,1.408,589.566C.791,583.861.591,578.1.2,572.383a137.9,137.9,0,0,1,1.386-28.192,132.067,132.067,0,0,1,18.612-52.084,120.668,120.668,0,0,1,45.119-42.772,122.02,122.02,0,0,1,41.112-13.7,133.409,133.409,0,0,1,29.091-.992,151.441,151.441,0,0,1,37.791,8.033,281.655,281.655,0,0,1,80.669,43.315,331.4,331.4,0,0,1,31.113,26.675c7.221,6.984,14.442,13.949,21.208,21.258,13.388,14.33,26.2,29.185,38.153,44.757q5.411,7.059,10.829,14.112c.343.437.7.849,1.4,1.7,0-3.139.125-5.811,0-8.463-.268-5-.612-9.98-1.08-14.942a337.131,337.131,0,0,0-9.443-52.54c-5.736-22.394-13.425-44.158-20.609-66.108a462.266,462.266,0,0,1-14.761-52.515c-2.11-10.542-3.951-21.133-5.417-31.762-1.442-10.361-2.578-20.771-3.3-31.207a320.675,320.675,0,0,1-.687-36.493c.381-8.1.474-16.24,1.267-24.291q1.517-15.466,3.988-30.807a349.273,349.273,0,0,1,13.968-55.635,398.373,398.373,0,0,1,38.584-81.668C370.547,89.615,383.61,72.414,396.679,55.2c8.5-11.191,16.746-22.562,24.922-34.022,3.483-4.906,6.41-10.23,9.655-15.3a32.566,32.566,0,0,1,3.607-4.656,3.62,3.62,0,0,1,5.1-.318l.031.031a15.843,15.843,0,0,1,3.083,3.246q23.733,33.666,47.409,67.388c10.829,15.541,21.657,31.169,31.369,47.465A359.931,359.931,0,0,1,563,220.1a338.1,338.1,0,0,1,8.3,49.887c.774,9.2,1.317,18.424,1.8,27.643.287,6.591.431,13.213.306,19.854a193.957,193.957,0,0,1-5.037,45.119,220.574,220.574,0,0,1-13.949,38.191,531.163,531.163,0,0,1-36.094,62.732c-13.3,20.522-27.718,40.263-41.9,60.167a658.339,658.339,0,0,0-40.194,64.286,780.121,780.121,0,0,0-47.753,105.273c-1.8,4.781-3.408,9.6-5.105,14.436-.381,1.049-.793,2.091-1.411,3.77" transform="translate(0.002 -0.002)" fill="#c7d6e0"/><path d="M388.412,69.617A123.183,123.183,0,0,1,447.1,82.974a113.57,113.57,0,0,1,25.7,18.262,126.323,126.323,0,0,1,34.29,56.69,147.227,147.227,0,0,1,6.335,37.23c.144,3.607.343,7.215.324,10.829A178.875,178.875,0,0,1,506.1,256.97,188.294,188.294,0,0,1,474.605,317.8c-8.064,10.448-16.5,20.609-24.685,30.97a172.428,172.428,0,0,0-18.63,28.061c-2.359,4.606-4.238,9.474-6.316,14.224a45.52,45.52,0,0,1-1.8,4.188,4.779,4.779,0,0,1-4.562,3.227,5.125,5.125,0,0,1-5.056-3.876,46.022,46.022,0,0,1-1.261-8.338,72.4,72.4,0,0,1,3.227-21.751,295.641,295.641,0,0,0,7.221-34.29c.718-5.23,1.117-10.5,1.535-15.753.25-3.283.412-6.585.343-9.893a119.7,119.7,0,0,0-9.3-45.406,101.324,101.324,0,0,0-24-34.664A100.23,100.23,0,0,0,341.6,199.032a128.945,128.945,0,0,0-33.51-2.053,122.514,122.514,0,0,0-50.155,13.375,119.415,119.415,0,0,0-23.212,16.1c-10.267,9.025-20.628,17.938-30.676,27.25A460.841,460.841,0,0,0,142.59,323.49a378.252,378.252,0,0,0-45.7,84.389,286.636,286.636,0,0,0-12.433,39.358,97.092,97.092,0,0,0-2.4,26.407,49.917,49.917,0,0,0,1.535,10.017,10.5,10.5,0,0,0,9.693,8.551,7.053,7.053,0,0,0,7.758-3.895,46.164,46.164,0,0,0,2.89-7.945,63.481,63.481,0,0,1,5.755-14.7,23.341,23.341,0,0,1,22.525-12.851,40.827,40.827,0,0,1,14.062,2.852,28.155,28.155,0,0,1,15.035,36.868H161.3l-.374.868a51.055,51.055,0,0,1-74.341,21.582,53.013,53.013,0,0,1-21.945-32.48,104.688,104.688,0,0,1-2.852-30.683,134.927,134.927,0,0,1,6.622-36.35q7.621-22.665,16.065-45.006a683.442,683.442,0,0,1,29.472-66.452,595.5,595.5,0,0,1,58.85-94.244,445.1,445.1,0,0,1,29.909-35.445c7.814-8.195,15.591-16.458,23.786-24.273a375.759,375.759,0,0,1,50.28-41.205A234.928,234.928,0,0,1,357.3,73.387a140.377,140.377,0,0,1,31.151-3.751" transform="translate(323.033 364.718)" fill="#c7d6e0"/></g></g></svg>