<svg xmlns="http://www.w3.org/2000/svg" xmlns:xlink="http://www.w3.org/1999/xlink" width="291.999" height="70.866" viewBox="0 0 291.999 70.866"><defs><clipPath id="a"><rect width="291.999" height="70.866" fill="none"/></clipPath></defs><g clip-path="url(#a)"><path d="M17.015,0C27.024,0,32.77,4.947,32.77,13.592c0,8.982-5.747,14.216-15.755,14.216H7.861V39.8H1.151V0ZM7.861,21.781h8.87c6.143,0,9.612-2.616,9.612-8.019,0-5.232-3.469-7.733-9.612-7.733H7.861Z" transform="translate(0.473 0)" fill="#c7d6e0"/><path d="M52.222,33.72V39.8H28.278V0h6.71V33.72Z" transform="translate(11.619 0)" fill="#c7d6e0"/><path d="M57.182,30.825l-3.809,8.983h-7L63.947,0h6.884l17.4,39.808H81.064l-3.809-8.983ZM67.191,7.166,59.685,24.853H74.7Z" transform="translate(19.055 0)" fill="#c7d6e0"/><path d="M92.947,6.029V39.807H86.24V6.029H73.662V0h31.9V6.029Z" transform="translate(30.266 0)" fill="#c7d6e0"/><rect width="6.713" height="39.808" transform="translate(141.582)" fill="#c7d6e0"/><path d="M140.447,39.808,119.234,11.262V39.808h-6.71V0h6.6l21.325,28.607V0h6.6V39.808Z" transform="translate(46.234 0)" fill="#c7d6e0"/><path d="M178.522,23.316c0,10.407-6.545,16.775-17.292,16.775s-17.347-6.369-17.347-16.775V0H150.6V23.316c0,6.712,4.152,10.748,10.692,10.748,6.49,0,10.521-3.982,10.521-10.748V0h6.713Z" transform="translate(59.119 0)" fill="#c7d6e0"/><path d="M211.13,39.808l-.055-29.741L198.5,35.659H194.13L181.559,10.067V39.808h-6.312V0h7.963l13.137,26.446L209.424,0h7.9V39.808Z" transform="translate(72.006 0)" fill="#c7d6e0"/><path d="M14.541,36.346a6.778,6.778,0,0,1,2.38,5.5,6.737,6.737,0,0,1-2.38,5.476,9.963,9.963,0,0,1-6.573,1.985H1.618v7.269H0V34.362H7.967a9.974,9.974,0,0,1,6.573,1.984M13.4,46.3a5.453,5.453,0,0,0,1.874-4.444A5.5,5.5,0,0,0,13.4,37.393a8.243,8.243,0,0,0-5.429-1.57H1.618V47.854H7.967A8.3,8.3,0,0,0,13.4,46.3" transform="translate(0 14.111)" fill="#00529f"/><path d="M15.862,34.357H17.48V55.118h12.8v1.46H15.862Z" transform="translate(6.517 14.116)" fill="#00529f"/><path d="M43.876,50.325H30.986l-2.822,6.253H26.415L36.64,34.357h1.618L48.481,56.578H46.735Zm-.6-1.366L37.43,36.135,31.621,48.96Z" transform="translate(10.853 14.116)" fill="#00529f"/><path d="M46.757,55.944a8.952,8.952,0,0,1-3.444-2.174l.729-1.206A8.6,8.6,0,0,0,47.2,54.578a11.321,11.321,0,0,0,4.173.779,7.973,7.973,0,0,0,4.8-1.206,3.745,3.745,0,0,0,1.618-3.143,3.291,3.291,0,0,0-.856-2.382,5.692,5.692,0,0,0-2.128-1.364,29.477,29.477,0,0,0-3.43-.988A33.018,33.018,0,0,1,47.457,45.1a6.239,6.239,0,0,1-2.507-1.761,4.693,4.693,0,0,1-1.033-3.19,5.417,5.417,0,0,1,.858-2.963,5.823,5.823,0,0,1,2.619-2.143,10.736,10.736,0,0,1,4.4-.794,12.394,12.394,0,0,1,3.62.54,10.7,10.7,0,0,1,3.079,1.46l-.6,1.3a10.216,10.216,0,0,0-2.935-1.393,11.1,11.1,0,0,0-3.16-.477,7.48,7.48,0,0,0-4.666,1.239,3.884,3.884,0,0,0-1.587,3.206,3.285,3.285,0,0,0,.856,2.382,5.663,5.663,0,0,0,2.128,1.364,32.059,32.059,0,0,0,3.459,1.016,32.465,32.465,0,0,1,3.905,1.175,6.42,6.42,0,0,1,2.492,1.73,4.532,4.532,0,0,1,1.033,3.128,5.286,5.286,0,0,1-.873,2.952A5.927,5.927,0,0,1,55.857,56a11.013,11.013,0,0,1-4.444.794,12.965,12.965,0,0,1-4.656-.847" transform="translate(17.797 14.069)" fill="#00529f"/><path d="M63.733,35.818h-8v-1.46H73.352v1.46h-8V56.579h-1.62Z" transform="translate(22.9 14.117)" fill="#00529f"/><rect width="1.618" height="22.221" transform="translate(100.252 48.475)" fill="#00529f"/><path d="M81.821,55.324a10.789,10.789,0,0,1-4.127-4.032,11.823,11.823,0,0,1,0-11.555A10.769,10.769,0,0,1,81.821,35.7a11.889,11.889,0,0,1,5.889-1.46,12.344,12.344,0,0,1,4.444.777,9.18,9.18,0,0,1,3.459,2.3L94.6,38.371a9.307,9.307,0,0,0-6.826-2.636,10.268,10.268,0,0,0-5.079,1.27,9.3,9.3,0,0,0-3.588,3.507,10.248,10.248,0,0,0,0,10,9.3,9.3,0,0,0,3.588,3.507,10.268,10.268,0,0,0,5.079,1.27A9.315,9.315,0,0,0,94.6,52.623l1.014,1.047a9.243,9.243,0,0,1-3.476,2.318,12.108,12.108,0,0,1-4.427.793,11.891,11.891,0,0,1-5.889-1.459" transform="translate(31.304 14.069)" fill="#00529f"/><path d="M101.433,55.944a8.952,8.952,0,0,1-3.444-2.174l.729-1.206a8.6,8.6,0,0,0,3.159,2.015,11.321,11.321,0,0,0,4.173.779,7.973,7.973,0,0,0,4.8-1.206,3.745,3.745,0,0,0,1.618-3.143,3.291,3.291,0,0,0-.856-2.382,5.692,5.692,0,0,0-2.128-1.364,29.478,29.478,0,0,0-3.43-.988,33.018,33.018,0,0,1-3.919-1.175,6.239,6.239,0,0,1-2.507-1.761,4.693,4.693,0,0,1-1.033-3.19,5.417,5.417,0,0,1,.858-2.963,5.823,5.823,0,0,1,2.619-2.143,10.736,10.736,0,0,1,4.4-.794,12.394,12.394,0,0,1,3.62.54,10.7,10.7,0,0,1,3.079,1.46l-.6,1.3a10.218,10.218,0,0,0-2.936-1.4,11.1,11.1,0,0,0-3.16-.477,7.48,7.48,0,0,0-4.666,1.239,3.881,3.881,0,0,0-1.591,3.2,3.285,3.285,0,0,0,.856,2.382,5.663,5.663,0,0,0,2.128,1.364,32.059,32.059,0,0,0,3.459,1.016,32.463,32.463,0,0,1,3.905,1.175,6.42,6.42,0,0,1,2.492,1.73,4.532,4.532,0,0,1,1.033,3.128,5.286,5.286,0,0,1-.873,2.952,5.927,5.927,0,0,1-2.681,2.126,11.014,11.014,0,0,1-4.444.794,12.96,12.96,0,0,1-4.656-.847" transform="translate(40.262 14.069)" fill="#00529f"/><path d="M115.495,54.293a9.952,9.952,0,0,1-2.332-7.142V34.357h1.618v12.73a8.776,8.776,0,0,0,1.872,6.126,8.223,8.223,0,0,0,10.826,0,8.77,8.77,0,0,0,1.874-6.126V34.357h1.62V47.151a9.918,9.918,0,0,1-2.349,7.142,10.04,10.04,0,0,1-13.121,0" transform="translate(46.486 14.116)" fill="#00529f"/><path d="M146.561,56.583l-5.3-7.428a16.019,16.019,0,0,1-2.159.159h-6.349v7.269h-1.618V34.362H139.1a9.968,9.968,0,0,1,6.572,1.984,6.78,6.78,0,0,1,2.382,5.5,6.773,6.773,0,0,1-5.208,6.951l5.556,7.778Zm-7.461-8.7a8.243,8.243,0,0,0,5.429-1.57,5.5,5.5,0,0,0,1.874-4.461,5.5,5.5,0,0,0-1.874-4.461,8.243,8.243,0,0,0-5.429-1.57h-6.349V47.885Z" transform="translate(53.88 14.111)" fill="#00529f"/><path d="M163.826,45.609h1.552v8.324a9.676,9.676,0,0,1-3.54,2.126,13.175,13.175,0,0,1-4.4.729,12.134,12.134,0,0,1-5.953-1.459,10.707,10.707,0,0,1-4.158-4.034,11.805,11.805,0,0,1,0-11.554,10.707,10.707,0,0,1,4.158-4.034,12.207,12.207,0,0,1,5.984-1.46,12.554,12.554,0,0,1,4.494.779,9.66,9.66,0,0,1,3.507,2.269l-1.017,1.081a8.383,8.383,0,0,0-3.127-2.016,11.277,11.277,0,0,0-3.826-.619,10.512,10.512,0,0,0-5.158,1.27,9.281,9.281,0,0,0-3.6,3.509,9.755,9.755,0,0,0-1.3,5,9.613,9.613,0,0,0,1.318,4.968,9.505,9.505,0,0,0,3.6,3.527A10.3,10.3,0,0,0,157.5,55.3a9.71,9.71,0,0,0,6.318-2.032Z" transform="translate(59.916 14.071)" fill="#00529f"/><path d="M180.059,55.118v1.46H164.726V34.357h14.857v1.46H166.344v8.759H178.18v1.429H166.339v9.11Z" transform="translate(67.683 14.116)" fill="#00529f"/><path d="M195.207,56.583l-5.3-7.428a16.018,16.018,0,0,1-2.159.159H181.4v7.269h-1.618V34.362h7.967a9.968,9.968,0,0,1,6.572,1.984,6.78,6.78,0,0,1,2.382,5.5,6.773,6.773,0,0,1-5.208,6.951l5.556,7.778Zm-7.461-8.7a8.243,8.243,0,0,0,5.429-1.57,5.5,5.5,0,0,0,1.874-4.461,5.5,5.5,0,0,0-1.874-4.461,8.243,8.243,0,0,0-5.429-1.57H181.4V47.885Z" transform="translate(73.868 14.111)" fill="#00529f"/><path d="M203.694,48.927v7.651h-1.618V48.927l-8.953-14.57H194.9l8.032,13.077,8.031-13.077h1.686Z" transform="translate(79.35 14.116)" fill="#00529f"/></g></svg>