<svg xmlns="http://www.w3.org/2000/svg" width="243" height="31.533" viewBox="0 0 243 31.533"><g transform="translate(-21.019 -20.152)"><path d="M85.628,20.6a.9.9,0,0,1,1.4-.2,5.831,5.831,0,0,1,1.674,2.665,7.652,7.652,0,0,1-.242,6.021,8.282,8.282,0,0,1-2.1,2.685A64.224,64.224,0,0,1,70.8,41.36a1.6,1.6,0,0,1-.92.176A4.739,4.739,0,0,1,70.9,40.4a81.959,81.959,0,0,0,8.052-9.674A98.347,98.347,0,0,0,85.628,20.6Z" transform="translate(-41.268)" fill="#80ba27"/><g transform="translate(21.019 22.165)"><path d="M74.584,34.464a16.6,16.6,0,0,1,8.765-1.237,14.434,14.434,0,0,1,5.811,1.829,17.1,17.1,0,0,1,3.173,2.454c-1.325,1.566-2.679,3.111-4.029,4.655a10.979,10.979,0,0,0-6.694-3.2,7.948,7.948,0,0,0-6.653,2.752,9.656,9.656,0,0,0,1.036,13.32,8.438,8.438,0,0,0,7.448,1.474,11.978,11.978,0,0,0,5.066-3.061c1.33,1.358,2.68,2.7,4.023,4.045a15.741,15.741,0,0,1-4.422,3.535A14.971,14.971,0,0,1,81,62.611a14.575,14.575,0,0,1-8.829-2.679,14.362,14.362,0,0,1-5.737-9.117,15.794,15.794,0,0,1,1.038-9.176,14.171,14.171,0,0,1,7.112-7.176Zm156.673-1.111c.973,0,1.944,0,2.918,0q0,14.313,0,28.63c-.974,0-1.949,0-2.923,0,0-1.05.012-2.1-.009-3.15a11.736,11.736,0,0,1-2.477,2.2,9.269,9.269,0,0,1-7.9.915,9.833,9.833,0,0,1-5.574-4.64,11.4,11.4,0,0,1-1.28-6.669,10.452,10.452,0,0,1,4.393-7.715,9.435,9.435,0,0,1,12.844,1.785c.006-3.787,0-7.574,0-11.359M222.47,44.232a6.582,6.582,0,0,0-3.616,2.095,8.847,8.847,0,0,0-1.663,7.3,7.31,7.31,0,0,0,2.869,4.665,6.8,6.8,0,0,0,5.157,1.172,7.408,7.408,0,0,0,4.758-3.1,8.13,8.13,0,0,0-.468-9.716,7.276,7.276,0,0,0-7.037-2.41Zm34.418-10.7a2.733,2.733,0,0,1,1.77-.179c-.019.274-.042.549-.061.822-.4-.016-.994-.256-1.243.193.025.474.648.5.97.713a1.152,1.152,0,0,1,.231,1.855,2.339,2.339,0,0,1-2.1.367c.016-.3.033-.589.047-.884a2.611,2.611,0,0,0,1.158.1.368.368,0,0,0,.134-.583c-.385-.258-.892-.317-1.21-.673A1.185,1.185,0,0,1,256.888,33.533Zm2.854-.18c.361,0,.724,0,1.091.008.194.668.418,1.327.615,2l.155.078c.315-.656.457-1.4.715-2.082q.527,0,1.058.006c.224,1.322.421,2.648.642,3.972-.343,0-.681,0-1.019-.014-.089-.643-.182-1.287-.3-1.927l-.168.095c-.207.609-.37,1.232-.564,1.844l-.909,0a20.675,20.675,0,0,1-.606-2.067c.184-.323-.325-.326-.141,0-.028.691-.171,1.374-.241,2.064l-.96.006c.2-1.329.424-2.653.627-3.981ZM161.92,35.424a14.379,14.379,0,0,1,8.579-1.231,13.392,13.392,0,0,1,5.782,2.28,24.021,24.021,0,0,1,2.786,2.3c-.718.757-1.437,1.513-2.179,2.247a20.792,20.792,0,0,0-2.623-2.222,11.231,11.231,0,0,0-8.093-1.747A10.14,10.14,0,0,0,159.729,41a11.549,11.549,0,0,0-2.225,6.226,12.128,12.128,0,0,0,2.224,8.145,10.293,10.293,0,0,0,6.9,4.1,11.2,11.2,0,0,0,5.947-.834,15.386,15.386,0,0,0,4.5-3.437c.726.675,1.417,1.388,2.143,2.064a17.854,17.854,0,0,1-5.407,3.976,14.656,14.656,0,0,1-7.592,1.094,13.358,13.358,0,0,1-8.271-4.191,14.975,14.975,0,0,1-2.772-15.1,13.752,13.752,0,0,1,6.741-7.625Zm76.439-1.33c1.13-.012,2.259-.008,3.391,0,.006,1.209,0,2.418,0,3.627-1.133,0-2.266.012-3.4-.008C238.358,36.5,238.348,35.3,238.359,34.094Zm9.166,1.394c.988,0,1.977,0,2.965,0q0,3.074,0,6.147,3.377,0,6.756,0c0,.931,0,1.86,0,2.791q-3.38,0-6.759,0,0,6.058,0,12.114a2.77,2.77,0,0,0,.924,2.237,4.466,4.466,0,0,0,3.293.6,10.476,10.476,0,0,0,2.461-.856c0,.981.006,1.961,0,2.941a7.736,7.736,0,0,1-3.689.842,5.644,5.644,0,0,1-4.867-2.12,6.3,6.3,0,0,1-1.086-3.784q-.007-5.981,0-11.963c-.917-.016-1.835,0-2.752-.006V41.637c.915,0,1.834.006,2.751,0q0-3.072,0-6.144ZM125.21,40.748a7.1,7.1,0,0,1,3.9-.907c.042,2.18.012,4.36.016,6.54a6.606,6.606,0,0,0-5.076,1.795,8.516,8.516,0,0,0-1.88,5.729c-.009,2.746,0,5.493,0,8.24q-3.107,0-6.212,0,0-10.941,0-21.878,3.1,0,6.206,0c.012,1.4-.019,2.8.019,4.206a8.325,8.325,0,0,1,3.024-3.725Zm8.846,1.123a10.427,10.427,0,0,1,6.445-2,10.036,10.036,0,0,1,6.807,2.418,11.5,11.5,0,0,1,3.513,6.98,14.583,14.583,0,0,1,.076,4.112c-5.05-.019-10.1,0-15.15-.009a5.286,5.286,0,0,0,2.21,3.411,6.438,6.438,0,0,0,4.438.715,7.64,7.64,0,0,0,3.936-2.138c1.21,1.041,2.4,2.112,3.6,3.168a10.614,10.614,0,0,1-6.329,3.847,12.855,12.855,0,0,1-8.514-1.187,10.458,10.458,0,0,1-4.767-5.484,12.878,12.878,0,0,1-.5-7.095,11.14,11.14,0,0,1,4.242-6.742M137.393,46a6.335,6.335,0,0,0-1.739,3.473c3.091,0,6.18,0,9.27,0a5.19,5.19,0,0,0-2.646-4.175A4.5,4.5,0,0,0,137.393,46ZM95.267,41.8a19.881,19.881,0,0,1,10.45-1.664,8.809,8.809,0,0,1,5.623,2.544,8.178,8.178,0,0,1,1.938,4.079,24,24,0,0,1,.239,4.665q0,5.361,0,10.722c-2.016,0-4.031.012-6.046-.009.009-.733.016-1.468,0-2.2-.488.354-.887.817-1.4,1.142a9.5,9.5,0,0,1-7.126,1.283,6.725,6.725,0,0,1-4.876-3.481,7.722,7.722,0,0,1-.581-4.359,5.992,5.992,0,0,1,2.575-4.186,10.917,10.917,0,0,1,6.066-1.548,15.35,15.35,0,0,1,5.394.876,3.833,3.833,0,0,0-1.344-3.4,6.649,6.649,0,0,0-4.508-.845,16.785,16.785,0,0,0-4.84,1.143c-.525-1.587-1.041-3.176-1.562-4.764m7.1,10.84a3.841,3.841,0,0,0-2.3,1.116,2.659,2.659,0,0,0,.3,3.768,4.776,4.776,0,0,0,3.622.6,4.276,4.276,0,0,0,3.345-2.351,5.766,5.766,0,0,0,.252-2.444A9.827,9.827,0,0,0,102.369,52.638Zm95.391-9.985a9.16,9.16,0,0,1,10.927.724,10.866,10.866,0,0,1,3.4,7.577,7.207,7.207,0,0,1-.107,2.153q-7.908-.009-15.815,0a7.5,7.5,0,0,0,3.3,5.417,7.216,7.216,0,0,0,4.921.963,8.625,8.625,0,0,0,5.3-3.159c.738.594,1.43,1.245,2.145,1.868a15.088,15.088,0,0,1-3.415,2.881,9.637,9.637,0,0,1-5.274,1.355,9.735,9.735,0,0,1-6.324-2.186,10.347,10.347,0,0,1-3.686-6.936,12.364,12.364,0,0,1,.5-5.187,10.232,10.232,0,0,1,4.138-5.466m2.065,2.059a7.614,7.614,0,0,0-3.658,5.655q6.405,0,12.813,0a8.975,8.975,0,0,0-1.285-3.686,5.81,5.81,0,0,0-3.52-2.534,6.283,6.283,0,0,0-4.351.562Zm-8.877-3.268a13.042,13.042,0,0,1,2.2-.089c0,1.041.008,2.084,0,3.125a7.843,7.843,0,0,0-5.349,1.552,9.192,9.192,0,0,0-3.187,7.115c-.009,2.946,0,5.894,0,8.84-.974,0-1.949,0-2.921,0q0-10.176,0-20.352c.974,0,1.949,0,2.923,0,0,1.257-.017,2.514.009,3.771a7.727,7.727,0,0,0,.836-.935,9.1,9.1,0,0,1,5.493-3.03Zm47.637.194c.974,0,1.947,0,2.923,0q0,10.176,0,20.352c-.974,0-1.948,0-2.921,0Q238.586,51.812,238.585,41.638ZM48.425,43.111Zm6.268,3.31c.029-.073.09-.217.121-.29,0,.067.008.2.011.269l-.132.022Zm3.019,4.735a1.575,1.575,0,0,1,1.949.336,3.4,3.4,0,0,1,.1,2.508,10.079,10.079,0,0,1-3.347,5.156,11.707,11.707,0,0,1-4.923,2.009,44.063,44.063,0,0,1-7.163.638,68.251,68.251,0,0,1-12.2-.867A38.4,38.4,0,0,1,21.6,57.788a1.389,1.389,0,0,1-.578-.471c.4-.325.926-.143,1.389-.145a86.567,86.567,0,0,0,14.3-.631A86.529,86.529,0,0,0,46.361,54.6,109.257,109.257,0,0,0,57.712,51.156ZM46.647,52.288l.292-.121-.023.135-.149.062Zm-.934.3.292-.124-.022.132Zm-1.085.323.286-.127-.019.132c-.067,0-.2,0-.267,0Zm-1.1.3.294-.113-.026.133-.149.057-.118-.078Zm-.614.158.289-.106-.026.131Zm-.618.176.283-.113-.022.132ZM27.747,54.588l.143-.071.126.068-.284.138.015-.135Z" transform="translate(-21.019 -33.105)" fill="#006a5c"/></g><g transform="translate(25.23 24.08)"><path d="M283.207,45.676c-.183-.326.325-.323.141,0ZM75.488,50.54a1.576,1.576,0,0,1,1.472-.29,2.611,2.611,0,0,1,1.072,1.933,9.411,9.411,0,0,1-.326,4.36c-.031.073-.092.217-.121.29.067.211-.079.41-.14.6a6.1,6.1,0,0,1-.988,1.674c-1.72,1.837-4.141,2.725-6.478,3.487l-.148-.019-.292.121a.806.806,0,0,1-.642.18L68.6,63a1.187,1.187,0,0,1-.8.2l-.286.127a1.237,1.237,0,0,1-.8.182l-.294.113-.146.107-.179-.055-.289.106-.162.113-.174-.051-.283.113a6.575,6.575,0,0,1-.89.244,91.188,91.188,0,0,1-14.477,2.081,9.739,9.739,0,0,1-1.7.008l.006-.359a21.028,21.028,0,0,1,2.5-.8L50.908,65a7.138,7.138,0,0,1,1.117-.471,81.455,81.455,0,0,0,9.71-4.589,102.083,102.083,0,0,0,9.581-6.414.3.3,0,0,0,.029-.022q2.067-1.487,4.143-2.962Z" transform="translate(-48.122 -45.432)" fill="#019e93"/></g></g></svg>