<svg xmlns="http://www.w3.org/2000/svg" xmlns:xlink="http://www.w3.org/1999/xlink" width="236" height="43.194" viewBox="0 0 236 43.194"><defs><clipPath id="a"><rect width="236" height="43.195" fill="none"/></clipPath></defs><g transform="translate(0 0)" clip-path="url(#a)"><path d="M23.169.1a17.652,17.652,0,0,0-12.23,7.992A16.657,16.657,0,0,0,8.195,18.125,17.5,17.5,0,0,0,22.31,34.678a17.109,17.109,0,0,0,13.365-2.758,17.972,17.972,0,0,0,7.462-11.367A14.89,14.89,0,0,1,42.8,26.2a21.411,21.411,0,0,1-7.316,12.022A21.648,21.648,0,0,1,1.427,13.859,21.339,21.339,0,0,1,23.169.1" transform="translate(0 0)" fill="#bf0c20"/><path d="M37.483,34.316a12.876,12.876,0,0,0,7.94-6.805,11.827,11.827,0,0,0,.855-7.894,12.325,12.325,0,0,0-11.032-9.559,12.639,12.639,0,0,0-13.316,10.2c-.006-.45-.034-.9-.014-1.348A15.2,15.2,0,1,1,40.345,34.3a18.334,18.334,0,0,1-1.813.3c-.36.041-.759.12-1.049-.282" transform="translate(-11.18 -2.175)" fill="#bf0c20"/><path d="M35.641,21.7a1.462,1.462,0,0,1-.777.708,7.692,7.692,0,0,0-4.085,7.668,7.959,7.959,0,0,0,15.381,2.06c.085-.2.053-.5.438-.531a4.96,4.96,0,0,1-.325,2.406,9.506,9.506,0,0,1-7.391,6.811,9.8,9.8,0,0,1-11.866-9.544,9.907,9.907,0,0,1,7.236-9.543,3.724,3.724,0,0,1,1.39-.035" transform="translate(-13.786 -11.049)" fill="#bf0c20"/><path d="M40.16,29.067c.209-2.842,3.089-5.051,6.445-4.8a5.841,5.841,0,0,1,5.288,6.089c-.091,3.03-2.506,5.382-4.437,5.254a.235.235,0,0,1,.056-.347,4.338,4.338,0,0,0,2.016-3.078,4.822,4.822,0,0,0-3.461-5.544A4.713,4.713,0,0,0,41.2,28.125a3.116,3.116,0,0,0-.586.738.339.339,0,0,1-.458.2" transform="translate(-20.494 -12.374)" fill="#bf0c20"/><path d="M406.423,23.974a10.607,10.607,0,0,1-6.937-2.711,8.222,8.222,0,0,1-2.762-5.671,8.581,8.581,0,0,1,6-8.922,12.685,12.685,0,0,1,9.67.32,8.334,8.334,0,0,1,5.189,6.887,8.6,8.6,0,0,1-4.728,8.8,13.107,13.107,0,0,1-6.426,1.3m.513-2.547a8.49,8.49,0,0,0,5.559-1.66,6.142,6.142,0,0,0,.167-9.542c-2.727-2.3-7.556-2.38-10.424-.454a6.177,6.177,0,0,0,.3,10.489,8.4,8.4,0,0,0,4.4,1.167" transform="translate(-202.438 -2.994)" fill="#fff"/><path d="M369.542,21.487v2.477H352.89V6.945h15.942V9.411H355.584v4.212h8.644a21.193,21.193,0,0,1,0,2.506h-8.641v5.359Z" transform="translate(-180.083 -3.544)" fill="#fff"/><path d="M208,16.636V23.9c-.885.087-1.706.033-2.518.037-.174-.57-.226-16.06-.063-17.045a1.086,1.086,0,0,1,.621-.07q5.782,0,11.563,0a9.082,9.082,0,0,1,2.3.289,4.363,4.363,0,0,1,3.4,4.6,4.716,4.716,0,0,1-4.673,4.717c-3.263.142-6.529.022-9.792.065a1.252,1.252,0,0,0-.839.135m.029-2.79a.519.519,0,0,0,.417.115c3.132,0,6.264,0,9.4-.006a4.369,4.369,0,0,0,1.029-.13,2.078,2.078,0,0,0,1.639-2.089,2.038,2.038,0,0,0-1.56-2.214,4.154,4.154,0,0,0-1.265-.156q-4.537,0-9.074,0c-.2,0-.432-.085-.581.1Z" transform="translate(-104.774 -3.475)" fill="#fff"/><path d="M466.577,23.958H465.2L454.423,12.089V23.942h-2.585V6.885h1.328L463.8,18.617l.179-.045c.018-1.292.006-2.586.008-3.879s0-2.567,0-3.851V6.893h2.588Z" transform="translate(-230.577 -3.513)" fill="#fff"/><path d="M269.414,16.04H257.491v7.9h-2.666V6.914h2.618v6.57h11.934V6.911h2.658V23.943h-2.62Z" transform="translate(-130.039 -3.527)" fill="#fff"/><path d="M129.3,23.965h-2.9l-2.209-4.29h-8.992l-2.177,4.27h-2.874L118.818,6.9h1.711l8.77,17.068m-6.339-6.626-3.271-6.464L116.4,17.34Z" transform="translate(-56.207 -3.52)" fill="#fff"/><path d="M321.023,23.932h-2.9l-2.2-4.273h-9.009l-2.187,4.257h-2.862l8.665-17.041a12.857,12.857,0,0,1,1.709-.048l8.785,17.1m-9.6-13.085-3.308,6.447a36.911,36.911,0,0,0,6.517-.111l-3.208-6.336" transform="translate(-154.044 -3.482)" fill="#fff"/><path d="M176.437,21.469v2.465H161.159V6.882h2.586V21.469Z" transform="translate(-82.241 -3.512)" fill="#fff"/><path d="M312.26,58.517c2.586,0,5.191-.151,7.77.04a5.249,5.249,0,0,1,5.1,5.421,5.411,5.411,0,0,1-2.449,4.91,5.157,5.157,0,0,1-2.374.856,11.424,11.424,0,0,1-1.9.053c-1.669-.071-3.344-.027-5.015.059a6.793,6.793,0,0,1-1.168-.135c-.163-.827-.133-10.627.038-11.2m1.8,9.5a.913.913,0,0,0,.217.089c1.763.007,3.528.064,5.288,0a3.516,3.516,0,0,0,2.96-1.608,4.222,4.222,0,0,0-1.005-5.619,5.387,5.387,0,0,0-2.813-.724c-1.334-.047-2.671-.015-4.007-.009-.206,0-.43-.063-.641.132Z" transform="translate(-159.275 -29.833)" fill="#fff"/><path d="M248.071,65.506h-5.33v4.265h-1.726V58.646c.146-.161.345-.1.523-.1q4.1-.006,8.193,0a3.05,3.05,0,0,1,3.109,2.076,3.711,3.711,0,0,1-.725,4,3.034,3.034,0,0,1-1.184.648.752.752,0,0,0-.508.344l2.692,4.117a11.675,11.675,0,0,1-2.019.069c-1.1-1.363-1.9-2.944-3.024-4.3m-5.31-1.667c2.06,0,4.036-.005,6.013,0a4.7,4.7,0,0,0,1.184-.144,1.518,1.518,0,0,0,1.282-1.508,1.626,1.626,0,0,0-1.225-1.819,5.687,5.687,0,0,0-1.338-.2c-1.793.013-3.586,0-5.379.009-.179,0-.38-.057-.537.134Z" transform="translate(-122.992 -29.871)" fill="#fff"/><path d="M288.6,58.667a7.76,7.76,0,0,1-.031,1.568H279.53V63.09h6.138a5.934,5.934,0,0,1,.076,1.768H279.5c-.029,1.131-.015,2.206-.008,3.345h9.371a4,4,0,0,1,.07,1.638H277.762V58.667Z" transform="translate(-141.744 -29.938)" fill="#fff"/><path d="M214.986,60.706a5.01,5.01,0,0,1-1.734.5,5.364,5.364,0,0,0-2.657-1.516,6.382,6.382,0,0,0-5.06.69,3.9,3.9,0,0,0-1.74,4.1,3.6,3.6,0,0,0,2.459,3,6.5,6.5,0,0,0,6.186-.507,10.307,10.307,0,0,0,.915-.777,7.292,7.292,0,0,1,1.53.9,6.382,6.382,0,0,1-3.859,2.425A8.885,8.885,0,0,1,205.188,69a5.773,5.773,0,0,1-1.865-9.119,6.274,6.274,0,0,1,2.967-1.8,8.362,8.362,0,0,1,7.1,1.016,6.139,6.139,0,0,1,1.6,1.606" transform="translate(-102.995 -29.457)" fill="#fff"/><path d="M371.19,69.845h-1.783V60.259h-5.06a4.924,4.924,0,0,1-.059-1.6H376.3a8.09,8.09,0,0,1-.009,1.583h-5.037c-.128,1.658-.044,3.227-.059,4.792s0,3.148,0,4.808" transform="translate(-185.881 -29.936)" fill="#fff"/><path d="M350.894,58.549c.433,0,.8,0,1.173,0,.156,0,.311.016.509.027V69.762a7.478,7.478,0,0,1-1.683.028Z" transform="translate(-179.064 -29.878)" fill="#fff"/></g></svg>